<svg xmlns="http://www.w3.org/2000/svg" width="612" height="408" viewBox="0 0 612 408">
<g>
<path d="M 362.38 138.21 C360.34,142.06 357.65,146.01 354.31,150.00 C348.36,157.12 329.85,170.14 319.63,174.39 C314.73,176.43 314.08,176.41 314.64,174.25 C314.90,173.24 314.37,172.60 312.05,171.78 L 315.50 172.76 L 318.40 170.32 C321.86,167.41 332.54,161.87 333.28,162.61 C333.56,162.90 334.81,161.32 336.06,159.11 C337.38,156.76 339.18,154.97 340.41,154.80 C341.92,154.58 342.58,153.66 342.80,151.49 C343.00,149.41 343.97,147.98 345.96,146.84 C347.54,145.93 349.53,144.13 350.38,142.82 C351.80,140.66 351.76,139.92 350.01,134.26 C347.42,125.96 344.65,120.72 340.27,115.88 C337.41,112.72 336.93,111.66 338.01,110.99 C339.84,109.87 342.46,111.35 345.20,115.06 C346.45,116.75 348.01,117.83 348.78,117.53 C349.03,117.43 349.27,117.39 349.52,117.38 C348.97,117.66 348.44,118.18 348.23,118.81 C347.99,119.54 348.44,119.77 349.42,119.39 C350.20,119.09 350.85,118.49 350.98,117.98 C352.04,118.88 353.13,120.81 354.38,123.95 C355.52,126.84 355.93,129.58 355.52,131.75 C354.54,136.97 355.55,138.80 359.42,138.80 C360.83,138.80 361.70,138.70 362.38,138.21 ZM 250.74 171.81 C251.15,174.63 250.90,175.00 249.21,175.00 C245.13,175.00 244.05,176.00 244.69,179.19 C245.20,181.75 245.01,182.15 243.42,181.84 C241.68,181.51 236.62,174.05 237.52,173.15 C237.74,172.92 237.40,171.78 236.75,170.62 C236.10,169.45 235.52,168.27 235.45,168.00 C235.39,167.73 234.70,166.15 233.93,164.50 C232.92,162.35 232.52,157.26 232.51,146.50 C232.50,132.51 232.68,131.08 235.15,125.22 C237.90,118.68 241.34,112.78 245.39,107.57 C245.30,107.78 245.37,107.82 245.65,107.67 C248.97,105.76 246.98,116.76 243.19,121.24 C242.11,122.51 241.87,124.42 242.28,128.43 C242.61,131.61 242.44,134.02 241.87,134.21 C240.20,134.77 238.91,142.15 239.01,150.50 C239.10,158.39 240.91,166.88 243.65,172.25 C245.42,175.72 247.40,175.86 246.75,172.48 C246.13,169.23 247.88,168.14 249.76,170.60 C250.24,171.24 250.56,171.64 250.74,171.81 ZM 298.63 197.53 C298.22,198.58 298.72,198.64 301.06,197.83 C303.75,196.89 304.00,196.41 304.00,192.11 L 304.00 192.09 C304.00,190.87 304.09,189.78 304.32,188.70 C304.09,189.79 304.00,190.88 304.00,192.11 C304.00,196.68 303.87,196.89 300.25,198.17 C297.85,199.02 291.64,199.49 283.00,199.50 C269.51,199.50 263.17,198.57 253.10,194.08 C254.84,194.10 259.90,194.05 265.50,193.95 C288.47,193.58 291.52,193.68 295.32,194.93 C297.78,195.75 298.96,196.67 298.63,197.53 ZM 325.15 95.88 C324.15,95.90 322.78,95.87 321.00,95.80 C316.57,95.62 313.40,95.91 313.26,96.50 C313.25,96.57 313.27,96.64 313.32,96.71 C312.48,96.18 312.99,95.47 315.19,94.89 L 317.50 94.29 L 315.00 93.73 C306.71,91.89 300.85,90.92 296.00,90.61 C292.98,90.41 295.67,90.35 302.00,90.47 C313.18,90.69 324.00,92.99 324.00,95.15 C324.00,95.47 324.46,95.74 325.15,95.88 ZM 251.12 162.64 C250.99,164.89 249.36,166.00 247.25,165.27 C245.56,164.68 245.65,157.54 247.37,156.11 C249.63,154.23 251.41,157.34 251.12,162.64 ZM 235.04 187.29 C233.80,185.51 232.57,183.93 231.80,183.14 C230.52,181.82 230.06,180.99 230.39,180.55 C231.59,181.43 237.97,183.29 242.92,183.99 C252.02,185.28 273.63,182.34 288.11,178.29 C288.08,178.44 288.10,178.68 288.17,178.98 C288.43,180.13 287.30,180.47 283.00,180.55 C279.98,180.61 275.25,181.17 272.50,181.79 C263.59,183.82 249.67,184.96 243.79,184.14 C235.94,183.05 235.44,184.73 242.27,188.81 C237.84,186.64 234.52,185.15 234.37,185.30 C234.17,185.49 234.45,186.22 235.04,187.29 ZM 277.32 120.35 C276.96,120.71 275.12,121.00 273.23,121.00 C270.50,121.00 269.91,120.67 270.39,119.42 C270.73,118.55 271.00,117.65 271.00,117.42 C271.00,117.19 271.79,117.01 272.75,117.03 C274.91,117.07 278.21,119.46 277.32,120.35 ZM 274.74 139.76 C274.55,142.35 274.41,142.45 273.32,140.75 C271.78,138.34 270.24,133.00 271.09,133.00 C272.55,133.00 274.92,137.39 274.74,139.76 ZM 288.50 178.17 C291.50,177.32 294.18,176.42 296.36,175.51 C299.19,174.31 301.65,174.06 305.61,174.56 C307.35,174.77 308.91,175.01 309.90,175.20 C308.81,175.05 306.73,174.88 304.44,174.78 C298.94,174.52 298.48,174.67 298.18,176.75 C297.83,179.24 297.82,179.25 295.59,178.40 C294.72,178.06 294.26,177.39 294.56,176.91 C295.16,175.93 292.12,176.84 290.41,178.15 C289.81,178.61 288.98,178.65 288.57,178.24 C288.55,178.22 288.53,178.19 288.50,178.17 ZM 353.83 89.81 C351.10,90.68 347.66,92.24 344.44,94.18 C343.37,94.83 342.48,95.37 341.71,95.81 C341.84,95.72 341.98,95.63 342.12,95.54 C344.68,93.84 345.96,92.34 345.61,91.44 C345.20,90.36 345.86,90.05 348.28,90.18 C349.68,90.25 351.93,90.10 353.83,89.81 ZM 255.91 210.36 C248.61,205.09 242.40,198.71 237.86,191.60 C240.36,195.09 243.75,199.29 246.56,202.16 C249.51,205.18 252.62,207.91 255.91,210.36 ZM 365.10 112.50 C367.20,117.03 367.59,122.23 366.34,127.83 C367.23,122.35 366.89,116.56 365.25,112.92 C364.13,110.45 362.14,107.16 360.29,104.52 C362.09,107.07 364.03,110.20 365.10,112.50 ZM 305.29 80.02 C316.67,80.00 327.45,81.99 337.95,86.05 C316.40,77.71 292.04,78.24 272.63,86.45 C282.34,82.25 293.33,80.04 305.29,80.02 ZM 310.70 175.37 C310.90,175.42 311.00,175.46 311.00,175.49 C311.00,175.64 309.46,178.32 307.56,181.48 C309.47,178.29 310.89,175.55 310.71,175.38 C310.71,175.37 310.71,175.37 310.70,175.37 ZM 352.09 93.64 C352.40,93.58 352.64,93.57 352.80,93.60 C354.55,94.01 359.70,90.37 358.74,89.41 C358.73,89.40 358.72,89.38 358.70,89.37 C358.88,89.44 358.97,89.52 358.97,89.64 C358.92,91.10 353.97,94.20 352.56,93.66 C352.45,93.62 352.30,93.62 352.09,93.64 ZM 251.01 167.03 C250.49,167.68 250.35,168.68 250.51,170.15 C250.50,170.15 250.50,170.14 250.50,170.13 C250.09,168.78 250.28,167.73 251.01,167.03 ZM 231.23 179.98 C231.58,179.59 231.54,178.98 231.13,178.17 C230.67,177.25 229.27,172.45 228.02,167.50 C229.27,172.45 230.68,177.29 231.18,178.25 C231.67,179.22 231.70,179.77 231.23,179.98 ZM 255.35 166.11 C256.25,166.18 255.92,166.36 254.25,167.03 C255.55,166.51 255.90,166.22 255.35,166.11 ZM 299.10 168.85 C297.35,168.60 295.68,168.42 294.29,168.32 L 287.08 167.84 L 294.29 168.31 C295.67,168.40 297.34,168.59 299.10,168.85 ZM 334.79 97.06 C334.45,96.95 334.09,96.82 333.69,96.68 C331.53,95.92 328.94,95.02 327.72,94.59 L 333.79 96.71 C334.15,96.84 334.48,96.95 334.79,97.06 Z" fill="rgba(0,0,0,1)"/>
<path d="M 344.50 97.07 C348.19,94.91 351.82,93.38 352.56,93.66 C353.97,94.20 358.92,91.10 358.97,89.64 C358.99,89.17 357.31,89.13 355.25,89.56 C354.12,89.80 352.66,89.99 351.29,90.10 C351.89,89.34 351.20,88.47 348.88,87.03 C348.56,86.84 348.24,86.64 347.92,86.44 C351.80,88.38 353.42,88.59 356.33,88.27 C361.58,87.67 362.87,89.02 360.51,92.63 C359.18,94.65 358.96,95.12 360.85,97.15 C360.80,97.11 360.76,97.08 360.71,97.05 C357.11,94.80 356.83,97.24 360.27,100.87 C360.51,101.12 360.77,101.41 361.04,101.71 C359.02,99.49 357.29,98.01 356.55,98.04 C355.97,98.06 353.83,99.52 351.80,101.29 L 348.09 104.50 L 349.22 109.50 C350.21,113.92 350.42,114.21 351.07,112.00 C351.47,110.62 351.85,109.72 351.90,110.00 C351.96,110.28 353.12,113.65 354.48,117.50 C356.92,124.40 356.96,124.44 356.98,120.39 C356.99,117.71 355.91,114.16 353.85,110.17 L 350.70 104.06 L 353.10 102.07 C354.42,100.97 355.83,100.05 356.24,100.03 C357.41,99.98 363.04,108.04 365.25,112.92 C367.61,118.15 367.27,127.84 364.48,134.65 C362.96,138.35 362.41,138.80 359.42,138.80 C355.55,138.80 354.54,136.97 355.52,131.75 C355.93,129.58 355.52,126.84 354.38,123.95 C352.28,118.68 350.65,116.81 348.78,117.53 C348.01,117.83 346.45,116.75 345.20,115.06 C342.46,111.35 339.84,109.87 338.01,110.99 C336.93,111.66 337.41,112.72 340.27,115.88 C344.65,120.72 347.42,125.96 350.01,134.26 C351.76,139.92 351.80,140.66 350.38,142.82 C349.53,144.13 347.54,145.93 345.96,146.84 C343.97,147.98 343.00,149.41 342.80,151.49 C342.58,153.66 341.92,154.58 340.41,154.80 C339.18,154.97 337.38,156.76 336.06,159.11 C334.81,161.32 333.56,162.90 333.28,162.61 C332.54,161.87 321.86,167.41 318.40,170.32 L 315.50 172.76 L 308.50 170.77 C304.65,169.68 298.25,168.57 294.29,168.31 L 287.08 167.84 L 285.35 163.92 C283.34,159.39 282.54,159.25 273.00,161.84 L 266.50 163.60 L 266.69 167.80 C266.87,171.83 266.76,172.00 263.91,172.00 C262.19,172.00 260.69,171.37 260.36,170.50 C259.51,168.29 258.10,168.67 258.70,170.95 C259.09,172.45 258.57,173.07 256.50,173.59 C252.00,174.72 249.96,168.76 254.25,167.03 C256.31,166.20 256.33,166.12 254.50,166.08 C251.18,166.00 249.71,167.49 250.50,170.13 C251.17,172.38 251.13,172.40 249.76,170.60 C247.88,168.14 246.13,169.23 246.75,172.48 C247.40,175.86 245.42,175.72 243.65,172.25 C240.91,166.88 239.10,158.39 239.01,150.50 C238.91,142.15 240.20,134.77 241.87,134.21 C242.44,134.02 242.61,131.61 242.28,128.43 C241.87,124.42 242.11,122.51 243.19,121.24 C246.98,116.76 248.97,105.76 245.65,107.67 C244.17,108.51 248.53,103.43 252.88,99.25 C272.91,79.96 308.12,74.50 337.95,86.05 C342.04,87.64 345.60,88.74 345.84,88.49 C345.86,88.48 345.87,88.45 345.87,88.43 C346.01,88.53 346.15,88.62 346.29,88.72 C347.27,89.40 348.08,89.88 348.74,90.19 C348.58,90.19 348.43,90.19 348.28,90.18 C345.86,90.05 345.20,90.36 345.61,91.44 C345.96,92.34 344.68,93.84 342.12,95.54 C338.19,98.14 337.96,98.17 333.79,96.71 L 327.50 94.51 C325.89,93.95 325.79,94.02 327.00,94.89 C328.25,95.79 328.12,95.97 326.25,95.98 C325.01,95.99 324.00,95.62 324.00,95.15 C324.00,92.99 313.18,90.69 302.00,90.47 C295.67,90.35 292.98,90.41 296.00,90.61 C300.85,90.92 306.71,91.89 315.00,93.73 L 317.50 94.29 L 315.19 94.89 C311.08,95.97 312.88,97.50 318.26,97.50 C321.14,97.50 323.74,97.82 324.03,98.20 C324.32,98.59 327.47,99.32 331.03,99.83 C334.59,100.34 337.56,100.81 337.64,100.88 C337.72,100.94 340.80,99.23 344.50,97.07 ZM 274.74 139.76 C274.81,138.82 274.49,137.57 273.97,136.40 C274.59,137.53 275.18,138.83 275.62,140.06 C276.58,142.74 277.89,145.13 278.53,145.37 C280.42,146.10 287.74,142.35 288.99,140.02 C290.41,137.37 288.62,134.67 285.99,135.50 C284.85,135.86 283.68,135.16 282.55,133.44 C280.49,130.30 281.27,129.02 283.82,131.34 C284.83,132.25 286.38,133.00 287.27,133.00 C288.16,133.00 289.16,133.45 289.50,134.00 C289.84,134.55 291.55,135.00 293.31,135.00 C297.20,135.00 301.41,138.42 302.39,142.35 C302.77,143.92 303.79,146.28 304.65,147.60 C306.44,150.33 308.00,149.90 308.00,146.69 C308.00,145.39 309.40,143.38 311.45,141.75 C315.55,138.47 316.66,138.34 317.50,141.00 C317.85,142.10 318.78,143.00 319.57,143.00 C320.36,143.00 321.00,143.93 321.00,145.06 C321.00,146.19 321.40,146.87 321.89,146.57 C322.37,146.27 323.33,146.69 324.01,147.51 C325.66,149.50 326.72,149.39 327.96,147.07 C328.72,145.66 328.64,144.78 327.66,143.81 C325.54,141.68 326.03,139.00 328.54,139.00 C333.08,139.00 335.16,132.87 332.34,127.81 C331.33,125.99 329.93,124.13 329.23,123.69 C327.39,122.52 328.65,121.10 330.98,121.71 C333.73,122.42 335.91,117.14 333.57,115.43 C332.73,114.81 332.29,114.04 332.61,113.72 C332.94,113.40 332.25,113.38 331.08,113.69 C329.92,113.99 328.75,114.60 328.48,115.03 C328.22,115.46 328.90,115.58 330.00,115.29 C333.56,114.36 332.13,115.90 327.03,118.48 C321.05,121.52 319.91,121.58 316.86,119.02 C314.84,117.33 314.72,116.89 316.00,116.01 C316.83,115.44 318.49,115.21 319.71,115.50 C321.24,115.86 323.00,115.06 325.49,112.87 C328.43,110.29 329.14,109.48 327.93,108.97 C328.08,108.99 328.26,109.00 328.46,109.00 C329.27,109.00 330.41,108.10 331.00,107.01 C331.99,105.15 331.89,105.09 329.53,106.17 C327.41,107.13 326.56,108.27 327.30,108.76 C327.04,108.69 326.73,108.62 326.39,108.55 C325.35,108.34 322.83,107.45 320.78,106.58 C318.74,105.71 315.56,105.00 313.72,105.00 C311.89,105.00 309.57,104.40 308.57,103.67 C306.87,102.43 306.94,102.27 309.63,101.15 C311.94,100.20 312.50,99.34 312.50,96.78 C312.50,94.23 312.00,93.45 310.00,92.89 C305.48,91.64 288.66,91.98 283.50,93.43 C272.96,96.40 262.78,101.67 260.94,105.11 C260.38,106.15 259.24,107.00 258.39,107.00 C257.45,107.00 257.00,107.68 257.24,108.75 C257.45,109.71 258.27,110.38 259.06,110.24 C260.26,110.02 260.24,110.18 258.99,111.24 C258.16,111.93 256.93,113.74 256.26,115.25 C255.08,117.91 255.14,118.00 258.02,118.00 C259.70,118.00 261.03,118.55 261.07,119.25 C261.11,119.94 261.51,119.60 261.96,118.50 L 262.79 116.50 L 263.49 118.50 C263.88,119.60 264.43,121.18 264.71,122.00 C265.09,123.08 265.36,123.15 265.70,122.25 C266.35,120.51 268.00,120.68 268.00,122.50 C268.00,123.43 268.94,124.00 270.50,124.00 C273.31,124.00 273.83,126.07 271.50,128.00 C269.56,129.61 269.61,131.20 271.66,133.18 C271.46,133.06 271.27,133.00 271.09,133.00 C270.24,133.00 271.78,138.34 273.32,140.75 C274.41,142.45 274.55,142.35 274.74,139.76 ZM 291.34 221.59 C277.70,218.98 266.52,214.32 257.42,207.41 C250.87,202.44 244.87,196.47 247.50,197.53 C262.87,203.75 265.99,204.35 282.50,204.29 C297.05,204.24 299.58,203.95 310.47,201.13 C323.98,197.63 341.05,189.74 350.12,182.80 C361.54,174.07 370.48,161.01 374.01,147.88 L 376.00 140.50 L 375.69 153.50 C375.33,168.97 372.76,177.88 365.37,189.31 C349.89,213.24 318.75,226.82 291.34,221.59 ZM 298.63 197.53 C298.96,196.67 297.78,195.75 295.32,194.93 C291.52,193.68 288.47,193.58 265.50,193.95 C258.90,194.06 253.05,194.11 252.50,194.06 C251.95,194.01 248.25,192.17 244.29,189.97 C235.41,185.05 235.23,182.95 243.79,184.14 C249.67,184.96 263.59,183.82 272.50,181.79 C275.25,181.17 279.98,180.61 283.00,180.55 C287.30,180.47 288.43,180.13 288.17,178.98 C287.98,178.16 288.17,177.83 288.57,178.24 C288.98,178.65 289.81,178.61 290.41,178.15 C292.12,176.84 295.16,175.93 294.56,176.91 C294.26,177.39 294.72,178.06 295.59,178.40 C297.82,179.25 297.83,179.24 298.18,176.75 C298.48,174.67 298.94,174.52 304.44,174.78 C307.71,174.93 310.53,175.20 310.71,175.38 C310.89,175.55 309.45,178.33 307.52,181.54 C304.82,186.02 304.00,188.48 304.00,192.09 C304.00,196.41 303.75,196.89 301.06,197.83 C298.72,198.64 298.22,198.58 298.63,197.53 ZM 270.64 158.50 C272.04,162.17 278.08,158.67 281.36,152.30 C283.52,148.09 283.46,147.85 280.43,148.61 C278.38,149.12 277.16,148.57 274.43,145.93 C272.44,144.00 271.00,141.62 271.00,140.25 C271.00,138.96 270.32,136.59 269.49,134.98 C268.66,133.37 268.10,131.54 268.24,130.89 C268.52,129.64 263.22,127.75 261.83,128.61 C261.36,128.89 260.09,128.84 258.99,128.50 C257.42,128.00 257.13,127.31 257.65,125.27 C258.19,123.09 258.02,122.78 256.57,123.34 C255.62,123.70 253.86,124.00 252.67,124.00 C251.20,124.00 249.61,125.41 247.73,128.38 C244.45,133.57 244.86,136.39 248.67,134.94 C251.47,133.87 253.00,134.43 253.00,136.53 C253.00,142.46 263.57,157.00 267.88,157.00 C269.08,157.00 270.32,157.68 270.64,158.50 ZM 242.00 314.00 C239.29,311.29 239.48,308.42 242.57,305.34 C244.68,303.22 245.78,302.86 248.66,303.33 C253.44,304.11 255.00,305.64 255.00,309.57 C255.00,315.50 246.43,318.43 242.00,314.00 ZM 369.65 314.17 C366.00,310.13 368.52,304.28 374.32,303.34 C377.22,302.86 378.31,303.22 380.43,305.34 C383.52,308.42 383.71,311.29 381.00,314.00 C378.39,316.61 371.95,316.71 369.65,314.17 ZM 313.03 205.90 C320.88,203.94 344.72,193.39 343.67,192.33 C343.41,192.08 340.57,193.19 337.35,194.80 C322.36,202.31 307.14,206.10 289.00,206.83 C278.61,207.25 275.63,207.62 278.50,208.14 C285.35,209.37 303.98,208.16 313.03,205.90 ZM 391.67 315.33 C391.30,314.97 391.00,312.27 391.00,309.33 L 391.00 304.00 L 396.03 304.00 C401.61,304.00 403.28,305.73 401.08,309.24 C400.04,310.91 400.19,311.58 402.10,313.61 C404.27,315.92 404.28,316.00 402.35,316.00 C401.25,316.00 399.29,314.88 398.00,313.50 C396.71,312.12 395.28,311.00 394.83,311.00 C394.37,311.00 394.00,312.12 394.00,313.50 C394.00,315.93 393.03,316.69 391.67,315.33 ZM 264.00 310.06 C264.00,306.79 264.34,303.93 264.75,303.70 C265.16,303.47 267.22,303.49 269.33,303.76 C273.60,304.29 274.95,306.26 273.09,309.23 C272.09,310.83 272.15,311.51 273.43,312.92 C275.39,315.09 275.42,316.00 273.52,316.00 C272.71,316.00 271.31,314.88 270.41,313.50 C269.51,312.12 268.37,311.00 267.88,311.00 C267.40,311.00 267.00,312.12 267.00,313.50 C267.00,315.06 266.43,316.00 265.50,316.00 C264.33,316.00 264.00,314.67 264.00,310.06 ZM 325.00 310.12 C325.00,301.46 326.55,301.18 331.20,309.00 L 333.28 312.50 L 335.34 308.25 C336.47,305.91 337.92,304.00 338.56,304.00 C339.76,304.00 341.36,313.61 340.41,315.14 C339.18,317.13 338.09,315.72 337.81,311.75 L 337.50 307.50 L 335.23 311.75 C333.98,314.09 332.77,316.00 332.54,316.00 C332.30,316.00 330.97,314.09 329.57,311.75 L 327.02 307.50 L 327.01 311.19 C327.00,313.22 326.55,315.16 326.00,315.50 C325.38,315.89 325.00,313.86 325.00,310.12 ZM 290.85 101.41 C288.66,101.76 285.81,102.74 284.52,103.58 C282.70,104.77 282.02,104.83 281.42,103.86 C280.98,103.15 281.18,102.44 281.89,102.20 C282.72,101.93 282.44,101.30 281.07,100.34 C279.93,99.54 279.00,98.51 279.00,98.06 C279.00,96.43 283.36,96.14 286.15,97.58 C288.86,98.98 289.49,98.75 289.04,96.50 C288.92,95.95 289.17,95.83 289.57,96.24 C289.98,96.65 290.94,96.46 291.71,95.83 C292.78,94.93 293.48,95.05 294.76,96.34 C295.97,97.54 296.07,98.00 295.11,98.00 C294.38,98.00 294.03,98.62 294.32,99.38 C294.69,100.37 293.69,100.95 290.85,101.41 ZM 223.00 309.45 L 223.00 302.74 L 227.12 303.29 C229.39,303.59 231.68,304.28 232.22,304.82 C233.95,306.55 232.01,310.05 228.97,310.66 C227.09,311.03 226.00,311.93 225.80,313.29 C225.64,314.42 224.94,315.53 224.25,315.76 C223.33,316.06 223.00,314.38 223.00,309.45 ZM 250.96 313.07 C251.53,312.00 252.00,310.27 252.00,309.22 C252.00,306.71 248.49,303.60 246.52,304.35 C244.21,305.24 242.88,309.55 244.00,312.50 C245.18,315.59 249.43,315.94 250.96,313.07 ZM 351.00 310.00 L 351.00 304.00 L 355.39 304.00 C358.55,304.00 359.96,304.46 360.42,305.64 C361.26,307.85 358.28,311.00 355.35,311.00 C353.51,311.00 353.00,311.54 353.00,313.50 C353.00,314.88 352.55,316.00 352.00,316.00 C351.44,316.00 351.00,313.33 351.00,310.00 ZM 204.06 312.92 L 206.25 309.83 L 204.13 306.96 C202.96,305.38 202.00,303.84 202.00,303.54 C202.00,302.24 204.85,303.17 206.51,305.02 L 208.34 307.03 L 210.67 304.84 C213.37,302.30 213.69,303.02 211.40,306.51 C209.91,308.79 209.95,309.18 211.98,312.47 C214.50,316.55 213.00,317.29 209.29,313.81 L 206.96 311.61 L 205.42 313.81 C204.58,315.01 203.43,316.00 202.88,316.00 C202.32,316.00 202.85,314.61 204.06,312.92 ZM 378.80 310.31 C379.05,306.88 378.72,305.92 376.97,304.98 C375.24,304.06 374.47,304.17 372.92,305.58 C369.25,308.90 371.27,315.34 375.82,314.81 C378.19,314.54 378.53,314.02 378.80,310.31 ZM 185.00 304.21 L 189.07 303.82 C191.32,303.61 193.37,303.79 193.63,304.22 C193.90,304.65 192.48,305.00 190.49,305.00 C187.57,305.00 186.92,305.34 187.19,306.74 C187.38,307.74 188.81,308.76 190.51,309.12 L 193.50 309.76 L 190.18 309.88 C187.34,309.98 186.91,310.32 187.18,312.25 C187.42,313.94 188.37,314.65 191.00,315.12 C194.29,315.70 194.22,315.74 189.75,315.87 L 185.00 316.00 L 185.00 304.21 ZM 276.00 166.50 C274.50,162.55 274.73,162.00 277.93,162.00 C280.05,162.00 281.05,162.59 281.54,164.13 C282.01,165.60 282.45,165.89 282.97,165.05 C283.53,164.15 283.87,164.23 284.31,165.36 C284.70,166.38 284.15,167.11 282.70,167.53 C281.49,167.87 279.71,168.38 278.75,168.65 C277.54,168.98 276.69,168.33 276.00,166.50 ZM 251.12 162.64 C251.41,157.34 249.63,154.23 247.37,156.11 C245.65,157.54 245.56,164.68 247.25,165.27 C249.36,166.00 250.99,164.89 251.12,162.64 ZM 414.41 314.63 C414.12,313.87 414.02,311.54 414.19,309.44 C414.46,306.11 414.18,305.54 412.00,304.92 C410.35,304.44 411.72,304.20 416.00,304.20 C420.14,304.20 421.59,304.45 420.00,304.89 C417.80,305.50 417.46,306.20 417.20,310.79 C416.91,315.74 415.55,317.61 414.41,314.63 ZM 271.41 108.13 C268.71,109.16 265.24,110.00 263.71,110.00 C260.76,110.00 260.78,109.93 264.94,105.35 C266.23,103.92 266.45,103.98 267.15,105.89 C268.14,108.56 270.03,108.62 270.71,106.00 C271.00,104.90 271.59,104.00 272.03,104.00 C272.48,104.00 273.66,103.73 274.67,103.41 C276.23,102.90 276.28,102.99 275.00,103.98 C273.73,104.97 273.72,105.24 274.91,105.71 C275.75,106.05 274.34,107.02 271.41,108.13 ZM 262.99 179.86 C262.98,179.11 262.70,177.49 262.37,176.25 C261.84,174.28 262.14,174.00 264.77,174.00 C267.19,174.00 267.91,174.52 268.44,176.62 C268.81,178.10 269.02,178.86 268.74,179.34 C268.44,179.87 267.58,180.07 265.75,180.53 C263.76,181.03 263.00,180.84 262.99,179.86 ZM 268.70 170.36 C268.31,169.98 268.00,168.44 268.00,166.95 C268.00,164.99 268.61,164.07 270.21,163.65 C271.46,163.33 272.77,163.61 273.20,164.29 C274.27,165.98 274.19,170.00 273.08,170.00 C272.58,170.00 271.54,170.24 270.78,170.53 C270.02,170.82 269.08,170.75 268.70,170.36 ZM 254.88 179.17 C254.18,177.36 254.28,176.44 255.21,175.85 C257.72,174.25 259.81,175.02 260.82,177.90 C261.77,180.64 261.66,180.82 258.83,181.24 C256.34,181.60 255.66,181.25 254.88,179.17 ZM 270.42 176.56 C269.66,173.52 270.54,172.00 273.04,172.00 C275.06,172.00 276.74,176.00 275.54,177.94 C274.29,179.96 271.06,179.08 270.42,176.56 ZM 313.00 310.08 C313.00,305.26 313.32,304.00 314.55,304.00 C315.80,304.00 316.04,305.09 315.80,309.67 C315.37,317.81 313.00,318.16 313.00,310.08 ZM 287.00 310.57 C287.00,305.41 286.86,305.11 284.25,304.72 C282.74,304.49 284.42,304.30 288.00,304.30 C291.58,304.30 293.26,304.49 291.75,304.72 C289.14,305.11 289.00,305.41 289.00,310.57 C289.00,313.55 288.55,316.00 288.00,316.00 C287.45,316.00 287.00,313.55 287.00,310.57 ZM 286.83 121.00 C286.92,123.20 286.65,124.99 286.24,124.98 C283.03,124.92 281.62,117.00 284.82,117.00 C286.29,117.00 286.70,117.83 286.83,121.00 ZM 156.50 309.00 L 147.50 308.38 L 159.75 308.19 C167.38,308.07 172.00,308.38 172.00,309.00 C172.00,310.04 171.48,310.04 156.50,309.00 ZM 348.21 136.26 C349.33,141.62 351.00,143.16 351.00,138.84 C351.00,136.73 348.01,129.66 347.38,130.28 C347.19,130.48 347.56,133.17 348.21,136.26 ZM 356.96 308.54 C358.34,306.89 357.56,305.00 355.50,305.00 C353.70,305.00 352.68,306.71 353.38,308.55 C354.09,310.40 355.43,310.40 356.96,308.54 ZM 228.90 309.09 C230.62,307.99 229.62,305.00 227.53,305.00 C226.56,305.00 226.00,305.92 226.00,307.50 C226.00,310.16 226.65,310.51 228.90,309.09 ZM 328.03 158.86 L 328.07 161.50 L 330.03 159.15 C332.14,156.61 331.84,154.74 329.47,155.65 C328.66,155.96 328.01,157.40 328.03,158.86 ZM 398.50 307.00 C398.50,304.83 394.60,305.13 394.17,307.33 C393.90,308.75 394.35,309.09 396.16,308.83 C397.45,308.65 398.50,307.83 398.50,307.00 ZM 270.50 307.00 C270.50,306.19 269.71,305.38 268.75,305.19 C267.52,304.95 267.00,305.49 267.00,307.00 C267.00,308.51 267.52,309.05 268.75,308.81 C269.71,308.62 270.50,307.81 270.50,307.00 ZM 322.79 223.02 C340.21,218.13 354.22,208.39 363.98,195.97 C356.61,205.36 346.79,213.28 334.76,218.82 C324.84,223.39 313.70,225.64 302.43,225.58 C309.61,225.39 317.67,224.46 322.79,223.02 ZM 279.30 222.16 C276.03,221.18 272.81,220.00 269.67,218.62 C265.61,216.82 261.38,214.31 257.30,211.35 C263.93,215.93 271.40,219.62 279.30,222.16 ZM 293.32 73.74 C286.52,74.41 280.17,75.75 274.22,77.77 C275.59,77.30 277.07,76.83 278.68,76.34 C284.32,74.61 287.28,73.97 293.32,73.74 ZM 335.84 80.33 C331.12,78.31 326.21,76.62 321.50,75.41 C319.29,74.84 317.47,74.40 315.81,74.07 C318.95,74.45 321.55,75.13 325.50,76.34 C328.34,77.21 332.18,78.71 335.84,80.33 ZM 298.15 171.05 C298.37,170.39 298.88,169.88 299.27,169.93 C300.47,170.05 300.24,171.42 298.95,171.85 C298.29,172.07 297.93,171.71 298.15,171.05 ZM 342.49 86.39 C338.53,84.49 331.91,81.79 327.14,80.27 C332.79,81.89 338.10,83.98 342.49,86.39 ZM 286.41 78.24 C279.03,79.82 271.80,82.45 264.90,86.12 C271.59,82.34 278.71,79.74 286.41,78.24 ZM 382.39 145.11 C382.18,138.35 381.55,133.52 380.10,128.72 C381.76,133.76 382.25,137.74 382.39,145.11 ZM 226.10 153.14 C226.22,158.04 226.86,162.87 228.02,167.50 C226.57,161.71 226.06,158.41 226.10,153.14 ZM 234.02 117.68 C231.20,123.39 229.10,129.43 227.78,135.58 C229.07,129.22 231.16,123.26 234.02,117.68 ZM 377.17 121.14 C376.51,119.68 375.77,118.16 374.94,116.52 C373.52,113.72 371.26,110.13 368.92,106.79 C372.07,111.25 375.10,116.24 376.48,119.50 C376.72,120.06 376.95,120.61 377.17,121.14 ZM 247.99 99.00 C248.85,98.16 249.72,97.34 250.60,96.55 C247.17,99.75 243.81,103.32 241.03,106.74 C243.13,104.06 245.45,101.48 247.99,99.00 ZM 235.25 108.20 C230.42,115.57 226.60,123.88 224.44,132.00 C226.67,123.61 230.40,115.49 235.25,108.20 ZM 350.63 214.41 C363.50,205.30 374.36,190.75 379.67,175.50 C381.51,170.22 382.15,167.83 382.37,161.70 C382.17,167.89 381.54,170.20 379.68,175.50 C374.34,190.77 363.49,205.30 350.63,214.41 ZM 274.00 77.84 C270.32,79.10 266.79,80.63 263.40,82.41 C266.70,80.61 269.90,79.24 274.00,77.84 ZM 366.39 108.50 C366.50,108.67 366.62,108.84 366.72,109.00 C367.31,109.88 367.88,110.76 368.42,111.65 C367.88,110.76 367.31,109.88 366.72,109.00 C366.61,108.83 366.50,108.67 366.39,108.50 Z" fill="rgba(41,82,104,1)"/>
<path d="M 231.54 219.02 C228.56,217.50 227.34,217.31 226.27,218.19 C224.12,219.97 214.00,219.57 210.00,217.54 C205.98,215.50 202.00,212.09 202.00,210.69 C202.00,210.12 204.82,209.93 208.90,210.23 C213.88,210.58 217.15,211.47 220.65,213.43 L 225.49 216.13 L 219.95 210.73 C214.83,205.73 213.98,205.28 208.52,204.71 C205.13,204.36 201.53,203.30 200.06,202.21 C197.32,200.18 190.68,191.98 191.29,191.38 C192.32,190.34 204.30,195.57 207.85,198.60 L 211.94 202.11 L 208.20 195.94 C205.00,190.69 203.79,189.56 199.97,188.29 C197.51,187.48 194.21,185.61 192.62,184.15 C189.87,181.61 186.07,174.80 186.02,172.32 C185.98,170.30 194.75,175.89 198.59,180.33 C200.57,182.62 202.02,183.82 201.80,183.00 C199.31,173.46 198.70,172.14 196.48,171.58 C190.67,170.13 184.07,161.18 184.02,154.70 L 184.00 151.90 L 187.67 154.70 C189.69,156.24 192.62,159.26 194.17,161.40 L 197.00 165.30 L 197.00 160.77 C197.00,156.61 196.63,155.94 192.48,152.54 C190.00,150.51 187.36,147.64 186.62,146.17 C184.93,142.80 183.80,135.68 184.63,133.52 C185.15,132.17 185.76,132.46 188.14,135.19 C191.58,139.13 194.96,145.22 195.10,147.71 C195.26,150.65 196.79,144.97 196.90,140.99 C196.97,138.51 196.42,137.12 195.02,136.25 C191.68,134.16 188.74,127.12 188.79,121.34 C188.87,112.62 190.10,112.13 193.78,119.37 C195.55,122.85 197.00,126.44 197.00,127.35 C197.00,130.91 198.92,128.75 199.56,124.46 C200.07,121.03 199.86,119.50 198.68,118.20 C197.82,117.25 196.56,114.37 195.87,111.79 C194.83,107.90 194.86,106.31 196.08,102.38 C196.89,99.78 198.01,97.50 198.58,97.31 C200.04,96.82 203.26,110.01 202.54,113.55 C202.15,115.45 202.87,114.54 204.55,111.00 C207.15,105.53 207.15,105.47 205.49,100.12 C203.62,94.11 204.46,88.69 207.99,84.02 L 209.85 81.55 L 210.52 84.21 C210.88,85.67 211.03,89.60 210.84,92.94 C210.65,96.27 210.89,99.00 211.36,99.00 C211.83,99.00 211.92,99.78 211.55,100.73 C211.03,102.09 211.37,102.00 213.19,100.29 C214.46,99.11 216.77,97.65 218.32,97.07 C221.28,95.94 226.00,95.62 226.00,96.54 C226.00,98.91 216.15,104.91 211.43,105.41 C209.34,105.63 208.15,106.75 206.39,110.10 C203.48,115.67 203.43,117.26 206.29,113.87 C208.68,111.03 213.93,108.00 216.48,108.00 C217.89,108.00 217.90,108.30 216.56,110.88 C214.65,114.59 209.94,118.53 205.53,120.12 C202.03,121.39 200.00,124.78 200.00,129.39 C200.00,131.20 200.28,131.07 202.18,128.40 C204.46,125.20 210.82,120.49 211.69,121.36 C211.97,121.64 211.69,123.42 211.06,125.32 C209.67,129.53 203.82,135.76 200.46,136.60 C198.15,137.18 198.00,137.61 198.07,143.86 L 198.14 150.50 L 199.60 146.52 C200.98,142.73 206.49,136.00 208.20,136.00 C209.47,136.00 209.13,140.75 207.59,144.45 C206.81,146.31 204.33,149.62 202.09,151.80 C197.79,155.97 197.22,158.50 199.00,165.50 C199.75,168.44 199.77,168.45 199.88,165.87 C200.06,161.99 202.48,156.83 205.41,154.08 L 208.00 151.65 L 208.00 156.36 C208.00,161.89 206.06,167.03 202.71,170.38 L 200.32 172.77 L 202.36 179.14 L 204.39 185.50 L 205.04 179.32 C205.39,175.91 206.50,171.88 207.50,170.35 C209.21,167.75 209.37,167.70 210.09,169.54 C211.63,173.48 211.03,181.30 208.85,185.82 L 206.69 190.27 L 209.10 194.71 C212.49,200.97 213.99,202.02 212.72,197.23 C211.61,193.07 212.55,184.00 214.10,184.00 C215.70,184.00 219.00,192.86 219.00,197.15 C219.00,199.34 218.51,202.05 217.90,203.18 C216.96,204.94 217.40,205.84 221.11,209.61 C225.95,214.54 228.08,215.42 225.09,211.25 C222.97,208.29 221.15,199.00 222.70,199.00 C223.84,199.00 228.20,203.62 230.26,207.00 C231.10,208.38 232.07,211.56 232.43,214.07 C232.95,217.82 233.55,218.83 235.78,219.71 C237.28,220.30 237.81,220.84 236.96,220.89 C236.12,220.95 233.68,220.11 231.54,219.02 ZM 369.14 219.74 C371.32,218.87 371.89,217.86 372.41,213.96 C373.22,207.86 379.01,199.00 382.19,199.00 C383.70,199.00 383.01,205.56 381.11,209.29 C378.69,214.02 379.63,213.99 384.34,209.17 C387.70,205.72 387.97,205.06 387.04,202.60 C385.43,198.37 385.84,192.94 388.14,188.00 L 390.24 183.50 L 391.58 186.50 C393.35,190.48 393.32,194.29 391.50,198.65 C390.67,200.63 390.00,202.53 390.01,202.87 C390.02,203.76 393.75,198.17 396.01,193.88 C397.89,190.30 397.88,190.20 395.96,186.41 C393.91,182.40 393.38,173.34 394.97,169.50 C396.38,166.08 400.35,176.17 399.74,181.63 C399.08,187.43 400.26,186.40 402.42,179.28 L 404.18 173.46 L 400.65 168.22 C397.39,163.38 394.90,154.77 396.34,153.33 C398.80,150.87 403.98,158.72 404.03,165.00 C404.09,173.80 406.12,166.35 406.71,155.12 C407.42,141.74 406.71,137.35 403.72,136.45 C400.43,135.46 395.47,130.36 393.46,125.90 C391.34,121.21 391.86,120.36 395.66,122.32 C399.02,124.06 401.26,126.40 403.50,130.50 L 405.13 133.50 L 404.45 129.00 C403.52,122.80 403.07,122.21 396.95,119.15 C391.21,116.28 384.79,108.81 387.53,108.18 C390.09,107.60 396.10,111.25 398.56,114.88 C401.72,119.52 401.65,118.20 398.36,110.88 C396.01,105.62 395.41,105.00 392.76,105.00 C388.84,105.00 383.94,102.59 380.46,98.95 L 377.63 96.00 L 380.88 96.00 C384.47,96.00 387.41,97.26 390.62,100.18 C392.53,101.91 392.81,101.94 393.37,100.48 C393.71,99.59 393.49,97.92 392.88,96.77 C391.63,94.45 392.36,85.24 393.91,83.69 C394.52,83.08 395.61,83.95 396.93,86.12 C399.21,89.86 399.62,95.93 397.91,100.83 C397.04,103.33 397.17,104.87 398.56,108.51 C400.58,113.81 402.55,115.67 401.76,111.53 C401.19,108.53 403.87,96.00 405.08,96.00 C405.50,96.00 406.61,98.03 407.55,100.50 C409.66,106.03 408.95,113.19 405.86,117.38 C403.88,120.07 403.83,120.62 405.04,125.67 C406.26,130.76 407.94,131.36 407.98,126.72 C407.99,125.74 409.42,122.14 411.15,118.72 C413.81,113.45 414.41,112.81 415.07,114.50 C416.35,117.75 416.11,125.82 414.63,129.28 C413.87,131.05 412.07,133.59 410.63,134.92 C408.31,137.07 408.00,138.11 408.00,143.87 C408.00,150.81 408.91,151.02 410.86,144.50 C411.51,142.30 413.82,138.50 415.98,136.05 C419.33,132.25 420.01,131.86 420.59,133.38 C420.97,134.37 420.73,137.63 420.06,140.63 C418.88,145.89 414.70,151.56 409.85,154.50 C408.70,155.19 408.05,157.33 407.75,161.39 L 407.31 167.28 L 409.08 163.84 C410.05,161.95 413.02,158.40 415.67,155.95 L 420.50 151.50 L 420.82 154.29 C421.30,158.46 417.29,165.77 412.72,169.09 C410.51,170.69 408.11,172.00 407.39,172.00 C406.44,172.00 403.00,180.27 403.00,182.57 C403.00,182.68 404.76,181.13 406.92,179.13 C409.08,177.14 412.68,174.47 414.92,173.22 C419.72,170.54 420.24,171.65 417.06,177.88 C414.35,183.20 408.71,187.86 404.10,188.60 C400.76,189.13 399.93,189.84 397.83,193.91 L 395.41 198.61 L 401.96 195.37 C409.40,191.69 414.00,190.42 414.00,192.05 C414.00,192.64 411.63,195.50 408.74,198.39 C403.42,203.71 400.43,205.00 393.42,205.00 C391.48,205.00 389.74,205.64 389.24,206.53 C388.77,207.38 386.22,209.85 383.58,212.03 C380.94,214.21 378.94,215.99 379.14,215.99 C379.34,215.98 382.15,214.63 385.39,212.99 C389.94,210.68 392.62,210.00 397.14,210.00 C400.36,210.00 403.00,210.37 403.00,210.83 C403.00,212.09 398.90,215.56 395.00,217.59 C391.06,219.65 379.24,220.01 378.07,218.11 C377.59,217.34 376.12,217.60 373.24,219.00 C370.96,220.10 368.51,220.95 367.80,220.89 C367.08,220.84 367.69,220.32 369.14,219.74 ZM 287.00 228.51 C264.90,223.56 246.80,211.76 235.15,194.75 C231.30,189.11 227.94,181.91 228.63,180.79 C228.90,180.35 228.48,179.33 227.68,178.54 C222.81,173.67 220.85,145.53 224.44,132.00 C227.93,118.87 235.77,105.23 245.19,95.91 C259.72,81.53 277.36,74.19 299.50,73.32 C310.08,72.90 312.68,73.14 321.50,75.41 C330.83,77.81 340.90,82.08 348.88,87.03 C351.34,88.56 351.97,89.43 351.17,90.23 C350.38,91.02 349.03,90.61 346.29,88.72 C336.10,81.71 317.99,76.69 303.00,76.71 C280.97,76.76 263.59,83.80 247.99,99.00 C234.36,112.29 227.17,128.51 226.25,148.00 C225.85,156.72 226.15,160.04 228.02,167.50 C229.27,172.45 230.67,177.25 231.13,178.17 C231.69,179.26 231.55,180.00 230.74,180.31 C229.89,180.63 230.22,181.51 231.80,183.14 C233.06,184.44 235.56,187.88 237.36,190.79 C243.98,201.55 257.60,213.28 269.67,218.62 C290.50,227.83 315.03,227.90 334.76,218.82 C378.06,198.88 392.85,148.07 366.72,109.00 C365.07,106.53 362.16,102.86 360.27,100.87 C356.83,97.24 357.11,94.80 360.71,97.05 C363.47,98.78 371.57,109.86 374.94,116.52 C381.22,128.93 382.50,134.95 382.48,152.00 C382.47,166.36 382.26,168.09 379.67,175.50 C374.36,190.75 363.50,205.30 350.63,214.41 C342.58,220.11 337.82,222.45 326.70,226.16 C318.97,228.73 315.59,229.28 305.50,229.59 C297.36,229.85 291.41,229.50 287.00,228.51 ZM 149.00 285.06 C149.00,284.54 149.41,283.86 149.92,283.55 C151.56,282.54 160.22,258.96 159.70,256.95 C159.25,255.24 159.72,255.00 163.55,255.00 C167.61,255.00 167.97,255.22 168.84,258.25 C170.64,264.46 177.87,283.27 178.85,284.25 C181.27,286.67 182.00,283.50 182.00,270.64 C182.00,261.68 181.61,257.01 180.80,256.20 C179.87,255.27 181.77,255.00 189.37,255.00 C202.04,255.00 205.90,256.99 205.97,263.56 C206.00,266.52 202.98,271.00 200.96,271.00 C199.40,271.00 199.85,272.86 202.23,276.29 C205.47,280.95 208.23,284.00 209.19,284.00 C210.88,284.00 220.35,259.44 219.66,256.83 C219.26,255.27 219.81,255.00 223.46,255.00 L 227.73 255.00 L 229.95 261.75 C233.17,271.49 236.97,281.15 238.62,283.75 C240.03,285.98 240.00,286.00 234.62,286.00 C229.90,286.00 229.25,285.77 229.65,284.22 C229.91,283.24 229.65,281.22 229.08,279.72 C228.13,277.21 227.62,277.00 222.50,277.00 C217.37,277.00 216.87,277.21 215.90,279.75 C215.15,281.69 215.16,283.01 215.93,284.25 C216.93,285.86 216.37,286.00 208.76,285.98 L 200.50 285.96 L 196.20 279.41 C193.83,275.81 191.36,273.04 190.70,273.26 C188.70,273.92 188.62,281.93 190.59,284.10 C192.27,285.96 192.04,286.00 180.75,286.00 C170.16,286.00 169.23,285.85 169.65,284.22 C169.91,283.24 169.65,281.22 169.08,279.72 C168.13,277.21 167.62,277.00 162.50,277.00 C157.37,277.00 156.87,277.21 155.90,279.75 C155.15,281.69 155.16,283.01 155.93,284.25 C156.90,285.81 156.57,286.00 153.01,286.00 C150.80,286.00 149.00,285.58 149.00,285.06 ZM 402.05 283.37 C402.97,280.95 402.53,262.72 401.42,257.25 C400.99,255.15 401.31,255.00 405.98,255.00 C411.38,255.00 411.54,255.12 409.94,258.10 C409.33,259.25 409.17,261.95 409.56,264.54 L 410.23 269.00 L 421.00 269.00 L 421.00 263.20 C421.00,260.01 420.46,256.86 419.80,256.20 C418.87,255.27 419.87,255.00 424.30,255.00 C429.56,255.00 431.44,256.00 429.00,257.50 C427.76,258.27 427.68,281.95 428.91,283.90 C429.40,284.66 430.46,285.04 431.26,284.73 C433.03,284.05 443.32,258.27 442.58,256.35 C442.20,255.36 443.09,255.00 445.90,255.00 C449.70,255.00 449.75,255.06 451.97,261.25 C456.29,273.30 459.13,280.52 460.62,283.25 L 462.11 286.00 L 456.50 286.00 C452.78,286.00 451.10,285.64 451.54,284.94 C451.90,284.35 451.91,282.32 451.55,280.44 L 450.91 277.00 L 444.97 277.00 C439.47,277.00 438.99,277.18 438.41,279.52 C438.06,280.90 438.01,282.92 438.29,284.02 C438.79,285.90 438.29,286.00 428.71,286.00 C420.85,286.00 418.87,285.73 419.80,284.80 C420.46,284.14 421.00,280.99 421.00,277.80 L 421.00 272.00 L 410.00 272.00 L 410.00 277.80 C410.00,280.99 410.54,284.14 411.20,284.80 C412.13,285.73 411.14,286.00 406.72,286.00 L 401.05 286.00 ZM 306.02 195.33 C306.02,194.32 306.61,191.55 307.33,189.16 C308.59,184.94 308.87,184.72 317.56,181.05 C326.99,177.07 333.25,173.84 339.25,169.55 C339.00,169.75 338.75,169.95 338.50,170.15 L 334.50 173.27 L 340.16 172.64 C347.61,171.80 348.42,171.43 350.09,168.06 C355.71,156.69 357.45,153.91 360.99,150.63 C363.40,148.40 364.99,146.03 364.96,144.71 L 364.93 142.50 L 363.71 144.65 C362.10,147.50 359.27,151.05 355.56,154.93 C363.10,146.34 368.87,136.37 369.75,129.81 C369.83,129.21 369.92,128.68 370.00,128.23 C370.00,128.30 370.00,128.37 370.00,128.43 C370.00,129.77 369.56,132.04 369.01,133.46 C368.11,135.85 368.18,135.97 370.01,134.99 C371.21,134.35 371.77,133.37 371.94,131.45 C371.98,132.32 372.00,133.29 372.00,134.34 C372.00,147.11 368.04,156.86 358.00,168.83 C348.51,180.15 336.24,188.01 319.68,193.40 C308.06,197.19 306.00,197.48 306.02,195.33 ZM 370.80 284.80 C372.47,283.13 372.47,257.87 370.80,256.20 C368.99,254.39 387.05,254.58 391.44,256.41 C396.89,258.69 397.52,265.89 392.47,268.19 L 390.00 269.32 L 392.97 271.13 C398.22,274.32 398.30,281.21 393.14,284.26 C389.49,286.41 368.68,286.92 370.80,284.80 ZM 132.39 273.94 C126.40,266.71 121.35,260.39 121.17,259.90 C120.04,256.87 119.36,260.35 119.25,269.67 C119.12,279.85 119.87,283.55 122.40,285.23 C123.00,285.64 121.13,285.98 118.23,285.98 C112.99,286.00 112.96,285.99 114.42,283.75 C116.42,280.69 116.15,252.09 114.10,249.62 C112.89,248.17 113.21,248.00 117.09,248.00 C118.43,248.00 119.32,247.95 120.15,248.15 C122.27,248.68 123.97,250.92 131.50,260.15 C134.80,264.19 138.74,268.85 140.25,270.50 L 142.99 273.50 L 143.00 262.31 C143.00,255.92 142.57,250.85 142.00,250.50 C139.80,249.14 141.22,248.00 145.12,248.00 C148.43,248.00 149.03,248.26 148.15,249.32 C147.46,250.15 146.94,257.42 146.77,268.56 C146.54,284.08 146.29,286.52 144.89,286.78 C143.86,286.98 139.40,282.40 132.39,273.94 ZM 270.64 158.50 C270.32,157.68 269.08,157.00 267.88,157.00 C263.57,157.00 253.00,142.46 253.00,136.53 C253.00,134.43 251.47,133.87 248.67,134.94 C244.86,136.39 244.45,133.57 247.73,128.38 C249.61,125.41 251.20,124.00 252.67,124.00 C253.86,124.00 255.62,123.70 256.57,123.34 C258.02,122.78 258.19,123.09 257.65,125.27 C257.13,127.31 257.42,128.00 258.99,128.50 C260.09,128.84 261.36,128.89 261.83,128.61 C262.48,128.20 263.99,128.40 265.38,128.86 C264.07,128.57 262.73,128.62 262.33,129.28 C261.95,129.89 262.18,130.56 262.82,130.77 C263.47,130.99 264.00,131.80 264.00,132.57 C264.00,133.79 268.19,149.19 269.51,152.81 C270.04,154.28 272.00,153.49 272.00,151.80 C272.00,151.21 272.79,150.15 273.75,149.44 C275.39,148.24 275.36,147.98 273.25,145.12 C272.60,144.25 272.02,143.20 271.61,142.24 C272.21,143.41 273.22,144.75 274.43,145.93 C277.16,148.57 278.38,149.12 280.43,148.61 C283.46,147.85 283.52,148.09 281.36,152.30 C278.08,158.67 272.04,162.17 270.64,158.50 ZM 304.90 275.82 L 295.50 264.55 L 295.21 273.87 C295.02,279.89 295.33,283.70 296.08,284.60 C297.05,285.76 296.53,286.00 293.05,286.00 C289.10,286.00 288.96,285.90 290.56,284.29 C292.07,282.79 292.19,281.12 291.57,270.07 C291.19,263.19 290.40,256.98 289.82,256.28 C288.98,255.28 289.63,255.00 292.79,255.00 C296.69,255.00 297.10,255.33 304.44,264.45 C308.62,269.65 312.48,274.18 313.02,274.51 C314.50,275.43 314.29,257.69 312.80,256.20 C311.87,255.27 312.45,255.00 315.41,255.00 C318.64,255.00 319.10,255.26 318.49,256.75 C318.09,257.71 317.70,264.79 317.63,272.49 C317.52,284.46 317.27,286.52 315.90,286.78 C314.88,286.98 310.86,282.97 304.90,275.82 ZM 258.91 282.25 C262.09,276.19 268.00,260.04 268.00,257.42 C268.00,255.27 268.44,255.00 271.93,255.00 C275.15,255.00 275.98,255.41 276.52,257.25 C278.08,262.67 285.45,281.70 286.77,283.75 C288.22,285.99 288.20,286.00 282.71,286.00 C277.91,286.00 277.25,285.77 277.65,284.22 C277.91,283.24 277.65,281.22 277.08,279.72 C276.13,277.21 275.62,277.00 270.50,277.00 C265.37,277.00 264.87,277.21 263.90,279.75 C263.15,281.69 263.16,283.01 263.93,284.25 C264.90,285.81 264.57,286.00 260.98,286.00 L 256.94 286.00 ZM 332.00 293.13 C332.00,292.51 332.65,292.00 333.44,292.00 C334.24,292.00 336.15,290.91 337.69,289.58 L 340.50 287.16 L 340.21 268.88 C340.03,257.71 339.49,250.09 338.83,249.30 C337.97,248.26 339.04,248.00 344.30,248.00 L 350.85 248.00 L 349.28 251.15 C347.98,253.74 347.81,256.72 348.27,267.90 C348.88,282.47 348.01,287.44 344.15,291.30 C341.88,293.56 332.00,295.05 332.00,293.13 ZM 469.39 286.02 C468.23,285.55 466.31,283.94 465.14,282.45 C463.24,280.04 463.00,278.46 463.00,268.57 C463.00,261.21 462.59,256.99 461.80,256.20 C460.87,255.27 461.87,255.00 466.30,255.00 C471.56,255.00 473.44,256.00 471.00,257.50 C470.43,257.85 470.00,262.84 470.00,269.06 C470.00,281.38 471.23,284.00 477.00,284.00 C482.74,284.00 484.00,281.35 484.00,269.33 C484.00,260.80 483.67,258.29 482.35,256.83 C480.76,255.08 480.90,255.00 485.50,255.00 C490.10,255.00 490.24,255.08 488.65,256.83 C487.32,258.30 486.99,260.89 486.97,270.08 C486.94,281.96 486.44,283.64 482.32,285.84 C479.81,287.17 472.50,287.28 469.39,286.02 ZM 243.80 284.80 C244.46,284.14 245.00,281.37 245.00,278.64 C245.00,274.71 244.14,272.08 240.88,266.09 C238.61,261.91 236.06,257.71 235.22,256.75 C233.78,255.11 234.06,255.00 239.75,255.00 C245.18,255.00 245.76,255.20 245.32,256.87 C244.90,258.48 249.33,269.00 250.42,269.00 C250.64,269.00 252.02,266.94 253.49,264.42 C255.32,261.30 255.98,259.07 255.57,257.42 C255.00,255.15 255.22,255.00 259.14,255.00 C263.02,255.00 263.21,255.12 261.79,256.75 C260.96,257.71 258.42,261.73 256.14,265.67 C252.79,271.47 252.00,273.81 252.00,277.85 C252.00,281.07 252.56,283.42 253.57,284.43 C255.00,285.86 254.57,286.00 248.87,286.00 C243.99,286.00 242.87,285.73 243.80,284.80 ZM 311.64 141.60 C313.34,140.06 315.26,138.78 316.54,138.60 C319.45,138.17 323.70,133.16 324.95,128.68 C326.57,122.88 325.89,121.00 322.14,121.00 C321.75,121.00 321.31,120.95 320.84,120.85 C322.26,120.77 324.04,120.00 327.03,118.48 C332.13,115.90 333.56,114.36 330.00,115.29 C328.90,115.58 328.22,115.46 328.48,115.03 C328.75,114.60 329.92,113.99 331.08,113.69 C332.25,113.38 332.94,113.40 332.61,113.72 C332.29,114.04 332.73,114.81 333.57,115.43 C335.91,117.14 333.73,122.42 330.98,121.71 C328.65,121.10 327.39,122.52 329.23,123.69 C329.93,124.13 331.33,125.99 332.34,127.81 C335.16,132.87 333.08,139.00 328.54,139.00 C326.03,139.00 325.54,141.68 327.66,143.81 C328.64,144.78 328.72,145.66 327.96,147.07 C326.72,149.39 325.66,149.50 324.01,147.51 C323.33,146.69 322.37,146.27 321.89,146.57 C321.40,146.87 321.00,146.19 321.00,145.06 C321.00,143.93 320.36,143.00 319.57,143.00 C318.78,143.00 317.85,142.10 317.50,141.00 C316.67,138.38 315.59,138.47 311.64,141.60 ZM 268.71 99.23 C267.71,99.84 266.77,100.49 265.90,101.17 C262.65,103.71 262.61,103.82 265.01,103.58 C266.39,103.44 268.50,102.80 269.69,102.16 C272.79,100.50 273.86,100.78 271.50,102.64 C269.56,104.16 269.57,104.19 272.00,103.49 C273.38,103.09 274.90,102.71 275.38,102.63 C276.82,102.41 276.79,107.14 275.35,107.70 C274.51,108.02 274.23,109.07 274.60,110.53 C275.07,112.40 274.58,113.17 272.14,114.43 C268.48,116.32 267.20,118.37 267.75,121.48 C267.27,120.71 266.20,120.92 265.70,122.25 C265.36,123.15 265.09,123.08 264.71,122.00 C264.43,121.18 263.88,119.60 263.49,118.50 L 262.79 116.50 L 261.96 118.50 C261.51,119.60 261.11,119.94 261.07,119.25 C261.03,118.55 259.70,118.00 258.02,118.00 C255.14,118.00 255.08,117.91 256.26,115.25 C256.93,113.74 258.16,111.93 258.99,111.24 C260.24,110.18 260.26,110.02 259.06,110.24 C258.27,110.38 257.45,109.71 257.24,108.75 C257.00,107.68 257.45,107.00 258.39,107.00 C259.24,107.00 260.38,106.15 260.94,105.11 C261.84,103.43 264.74,101.30 268.71,99.23 ZM 355.80 284.80 C357.47,283.13 357.47,257.87 355.80,256.20 C354.87,255.27 355.87,255.00 360.34,255.00 C365.70,255.00 366.00,255.13 365.04,256.93 C364.47,258.00 364.00,264.10 364.00,270.50 C364.00,276.90 364.47,283.00 365.04,284.07 C366.00,285.87 365.70,286.00 360.34,286.00 C355.87,286.00 354.87,285.73 355.80,284.80 ZM 212.00 98.71 C212.00,98.27 212.98,96.60 214.17,94.98 C215.93,92.60 216.30,90.88 216.10,85.98 C215.90,80.98 216.31,79.15 218.47,75.46 C222.24,69.03 224.01,69.50 223.27,76.75 C222.95,79.91 222.03,83.52 221.22,84.77 C219.86,86.87 219.89,86.98 221.62,86.33 C223.31,85.70 223.35,85.81 222.06,87.39 C220.81,88.93 221.07,88.90 224.06,87.17 C227.93,84.94 236.00,83.31 236.00,84.76 C236.00,87.69 227.40,92.00 221.55,92.00 C219.05,92.00 216.98,92.34 216.96,92.75 C216.91,93.79 212.01,99.68 212.00,98.71 ZM 388.41 94.50 C387.10,92.51 385.93,92.00 382.63,91.98 C377.77,91.95 371.32,89.22 368.50,86.00 L 366.50 83.71 L 371.99 84.42 C375.42,84.87 378.69,86.05 380.69,87.58 C383.62,89.81 383.86,89.85 383.51,88.07 C383.31,87.00 382.65,85.22 382.06,84.11 C381.47,83.00 380.69,79.26 380.34,75.80 L 379.70 69.50 L 381.88 71.43 C386.49,75.52 388.20,79.66 387.85,85.87 C387.66,89.10 388.00,92.33 388.60,93.10 C390.29,95.28 391.17,97.00 390.58,97.00 C390.29,97.00 389.31,95.88 388.41,94.50 ZM 226.61 82.00 C227.23,81.18 228.03,78.52 228.40,76.09 C228.77,73.67 229.76,70.52 230.61,69.09 C232.19,66.40 238.05,61.72 238.84,62.51 C239.83,63.50 235.55,72.71 232.67,75.75 C229.34,79.28 229.62,79.76 233.80,77.62 C237.58,75.68 244.58,74.66 246.54,75.76 C249.19,77.24 241.56,80.34 234.78,80.54 C231.64,80.63 228.26,81.33 227.28,82.10 C225.73,83.32 225.64,83.31 226.61,82.00 ZM 388.36 282.04 C389.69,280.71 389.71,274.31 388.39,272.99 C387.84,272.44 385.61,271.88 383.44,271.74 L 379.50 271.50 L 379.19 276.37 C378.74,283.42 379.33,284.37 383.68,283.66 C385.69,283.34 387.79,282.61 388.36,282.04 ZM 198.38 266.89 C199.93,262.44 198.45,259.22 194.34,258.08 C192.33,257.53 190.31,257.31 189.84,257.60 C189.38,257.88 189.00,260.82 189.00,264.12 L 189.00 270.11 L 193.23 269.81 C196.76,269.55 197.61,269.07 198.38,266.89 ZM 386.78 267.44 C391.24,264.32 388.75,257.95 382.95,257.67 L 379.50 257.50 L 379.20 263.25 C378.90,268.96 378.92,269.00 381.73,269.00 C383.28,269.00 385.56,268.30 386.78,267.44 ZM 373.34 78.75 C368.94,73.98 364.67,65.93 365.17,63.34 C365.45,61.92 366.15,62.20 369.30,64.96 C373.93,69.03 376.00,72.82 376.00,77.25 C376.00,79.09 376.54,81.14 377.20,81.80 C377.86,82.46 378.14,83.00 377.83,83.00 C377.51,83.00 375.49,81.09 373.34,78.75 ZM 402.36 151.82 C398.77,148.02 396.55,143.93 395.54,139.25 C394.64,135.07 395.68,135.15 400.27,139.61 C404.11,143.33 406.45,148.90 405.85,152.86 C405.51,155.07 405.40,155.03 402.36,151.82 ZM 309.68 104.24 C307.08,103.62 305.51,102.79 304.15,101.42 C302.36,99.63 300.99,99.06 299.55,99.52 C298.50,99.85 295.54,100.50 292.78,101.00 C293.84,100.69 294.35,100.32 294.39,99.83 C294.64,99.67 295.00,99.41 295.50,99.04 C296.60,98.24 298.18,96.77 299.02,95.77 C300.40,94.13 300.96,94.08 305.02,95.27 C308.70,96.36 311.52,96.48 312.46,95.74 C312.49,96.05 312.50,96.39 312.50,96.78 C312.50,99.34 311.94,100.20 309.63,101.15 C306.94,102.27 306.87,102.43 308.57,103.67 C308.85,103.88 309.23,104.07 309.68,104.24 ZM 356.41 70.39 C354.16,69.59 351.01,67.56 349.41,65.89 L 346.50 62.83 L 350.50 63.55 C355.44,64.44 358.96,66.20 361.25,68.93 C364.24,72.50 363.22,72.81 356.41,70.39 ZM 242.54 69.59 C244.63,66.38 248.13,64.43 253.53,63.45 L 257.50 62.73 L 255.13 65.31 C252.60,68.06 248.30,70.40 243.64,71.56 L 240.77 72.27 ZM 274.45 271.84 C272.77,266.53 270.86,262.97 270.01,263.50 C269.49,263.81 268.66,265.52 268.15,267.29 C267.63,269.05 266.89,271.29 266.50,272.25 C265.88,273.77 266.40,274.00 270.46,274.00 C274.80,274.00 275.09,273.84 274.45,271.84 ZM 166.45 271.75 C164.76,266.21 162.90,262.71 162.11,263.57 C161.65,264.08 160.56,266.64 159.69,269.25 L 158.12 274.00 L 162.63 274.00 C166.84,274.00 167.09,273.85 166.45,271.75 ZM 449.00 273.38 C449.00,271.94 445.48,263.00 444.91,263.00 C444.56,263.00 443.37,265.48 442.26,268.50 L 440.23 274.00 L 444.62 274.00 C447.03,274.00 449.00,273.72 449.00,273.38 ZM 225.49 269.97 C222.86,262.52 222.30,262.06 220.68,266.00 C218.77,270.65 217.96,272.60 218.60,273.41 C219.06,274.00 220.28,274.00 222.39,274.00 L 226.91 274.00 ZM 361.25 79.03 C358.91,77.97 357.00,76.56 357.00,75.91 C357.00,74.29 365.89,75.38 369.98,77.49 C376.70,80.97 368.65,82.39 361.25,79.03 ZM 271.41 108.13 C274.34,107.02 275.75,106.05 274.91,105.71 C273.72,105.24 273.73,104.97 275.00,103.98 C276.28,102.99 276.23,102.90 274.67,103.41 C273.66,103.73 272.48,104.00 272.03,104.00 C271.59,104.00 271.00,104.90 270.71,106.00 C270.03,108.62 268.14,108.56 267.15,105.89 C266.45,103.98 266.23,103.92 264.94,105.35 C260.78,109.93 260.76,110.00 263.71,110.00 C265.24,110.00 268.71,109.16 271.41,108.13 ZM 328.03 158.86 C328.01,157.40 328.66,155.96 329.47,155.65 C331.84,154.74 332.14,156.61 330.03,159.15 L 328.07 161.50 ZM 291.03 92.41 C287.62,92.74 284.30,93.32 281.17,94.13 C281.94,93.88 282.72,93.65 283.50,93.43 C285.11,92.98 287.87,92.63 291.03,92.41 ZM 295.22 98.00 C295.14,98.29 294.99,98.59 294.76,98.88 C294.59,99.10 294.45,99.28 294.34,99.44 C294.33,99.42 294.32,99.40 294.32,99.38 C294.03,98.62 294.38,98.00 295.11,98.00 C295.15,98.00 295.18,98.00 295.22,98.00 ZM 311.16 93.34 C309.24,92.57 305.47,92.21 298.99,92.12 C303.68,92.10 308.02,92.34 310.00,92.89 C310.46,93.02 310.85,93.17 311.16,93.34 ZM 320.01 106.28 C318.41,105.82 316.19,105.35 314.00,105.00 C315.63,105.06 318.11,105.59 320.01,106.28 ZM 293.28 95.29 C294.17,95.34 294.93,95.97 295.20,96.79 C295.08,96.65 294.93,96.50 294.76,96.34 C294.18,95.75 293.71,95.41 293.28,95.29 ZM 268.00 122.43 C268.42,123.55 269.20,124.00 270.62,124.00 C271.84,124.00 272.60,124.43 272.86,125.08 C272.59,124.43 271.78,124.00 270.50,124.00 C268.94,124.00 268.00,123.43 268.00,122.50 C268.00,122.48 268.00,122.45 268.00,122.43 ZM 328.39 109.93 C328.77,109.15 328.01,108.89 326.20,108.54 C325.30,108.37 323.93,107.89 322.80,107.39 C324.27,107.94 325.68,108.40 326.39,108.55 C328.06,108.89 328.77,109.17 328.39,109.93 ZM 290.22 101.52 C287.86,102.10 285.53,102.92 284.52,103.58 C285.69,102.81 288.14,101.94 290.22,101.52 ZM 370.69 126.12 C370.77,126.04 370.84,126.00 370.91,126.01 C370.84,126.03 370.76,126.06 370.69,126.12 Z" fill="rgba(185,154,57,1)"/>
<path d="M 338.50 170.15 C350.43,160.82 360.11,151.02 363.71,144.65 L 364.93 142.50 L 364.96 144.71 C364.99,146.03 363.40,148.40 360.99,150.63 C357.45,153.91 355.71,156.69 350.09,168.06 C348.42,171.43 347.61,171.80 340.16,172.64 L 334.50 173.27 L 338.50 170.15 ZM 269.51 152.81 C268.19,149.19 264.00,133.79 264.00,132.57 C264.00,131.80 263.47,130.99 262.82,130.77 C262.18,130.56 261.95,129.89 262.33,129.28 C263.22,127.84 268.59,129.31 268.24,130.89 C268.10,131.54 268.66,133.37 269.49,134.98 C270.32,136.59 271.00,138.84 271.00,139.99 C271.00,141.14 272.01,143.45 273.25,145.12 C275.36,147.98 275.39,148.24 273.75,149.44 C272.79,150.15 272.00,151.21 272.00,151.80 C272.00,153.49 270.04,154.28 269.51,152.81 ZM 304.65 147.60 C303.79,146.28 302.77,143.92 302.39,142.35 C301.41,138.42 297.20,135.00 293.31,135.00 C291.55,135.00 289.84,134.55 289.50,134.00 C289.16,133.45 288.16,133.00 287.27,133.00 C286.38,133.00 284.83,132.25 283.82,131.34 C281.27,129.02 280.49,130.30 282.55,133.44 C283.68,135.16 284.85,135.86 285.99,135.50 C288.62,134.67 290.41,137.37 288.99,140.02 C287.74,142.35 280.42,146.10 278.53,145.37 C277.89,145.13 276.58,142.74 275.62,140.06 C274.66,137.38 273.00,134.40 271.93,133.44 C269.61,131.34 269.48,129.68 271.50,128.00 C273.78,126.11 273.31,124.00 270.62,124.00 C268.89,124.00 268.11,123.33 267.77,121.60 C267.17,118.42 268.43,116.34 272.14,114.43 C274.58,113.17 275.07,112.40 274.60,110.53 C274.23,109.07 274.51,108.02 275.35,107.70 C276.79,107.14 276.82,102.41 275.38,102.63 C274.90,102.71 273.38,103.09 272.00,103.49 C269.57,104.19 269.56,104.16 271.50,102.64 C273.86,100.78 272.79,100.50 269.69,102.16 C268.50,102.80 266.39,103.44 265.01,103.58 C262.61,103.82 262.65,103.71 265.90,101.17 C273.22,95.44 285.43,92.00 298.00,92.11 C308.22,92.21 312.13,92.89 312.73,94.69 C313.32,96.46 309.94,96.72 305.02,95.27 C300.96,94.08 300.40,94.13 299.02,95.77 C298.18,96.77 296.60,98.24 295.50,99.04 C293.69,100.36 293.62,100.35 294.76,98.88 C296.46,96.71 293.78,94.11 291.66,95.87 C290.92,96.48 289.98,96.65 289.57,96.24 C289.17,95.83 288.92,95.95 289.04,96.50 C289.49,98.75 288.86,98.98 286.15,97.58 C283.36,96.14 279.00,96.43 279.00,98.06 C279.00,98.51 279.93,99.54 281.07,100.34 C282.44,101.30 282.72,101.93 281.89,102.20 C281.18,102.44 280.98,103.15 281.42,103.86 C282.02,104.84 282.70,104.77 284.52,103.58 C285.80,102.74 289.25,101.63 292.18,101.11 C295.10,100.59 298.42,99.88 299.55,99.52 C300.99,99.06 302.36,99.63 304.15,101.42 C306.05,103.32 308.34,104.20 313.24,104.89 C316.85,105.40 320.77,106.34 321.96,106.98 C323.15,107.62 325.06,108.32 326.20,108.54 C329.39,109.15 329.33,109.50 325.49,112.87 C323.00,115.06 321.24,115.86 319.71,115.50 C318.49,115.21 316.83,115.44 316.00,116.01 C314.72,116.89 314.84,117.33 316.86,119.02 C318.16,120.11 320.54,121.00 322.14,121.00 C325.89,121.00 326.57,122.88 324.95,128.68 C323.70,133.16 319.45,138.17 316.54,138.60 C313.79,139.00 308.00,144.49 308.00,146.69 C308.00,149.90 306.44,150.33 304.65,147.60 ZM 286.83 121.00 C286.70,117.83 286.29,117.00 284.82,117.00 C281.62,117.00 283.03,124.92 286.24,124.98 C286.65,124.99 286.92,123.20 286.83,121.00 ZM 277.32 120.35 C278.21,119.46 274.91,117.07 272.75,117.03 C271.79,117.01 271.00,117.19 271.00,117.42 C271.00,117.65 270.73,118.55 270.39,119.42 C269.91,120.67 270.50,121.00 273.23,121.00 C275.12,121.00 276.96,120.71 277.32,120.35 ZM 348.21 136.26 C347.56,133.17 347.19,130.48 347.38,130.28 C348.01,129.66 351.00,136.73 351.00,138.84 C351.00,143.16 349.33,141.62 348.21,136.26 ZM 369.01 133.46 C369.56,132.04 370.00,129.77 370.00,128.43 C370.00,127.10 370.45,126.00 371.00,126.00 C371.55,126.00 372.00,127.78 372.00,129.96 C372.00,132.90 371.48,134.21 370.01,134.99 C368.18,135.97 368.11,135.85 369.01,133.46 Z" fill="rgba(216,226,179,1)"/>
</g>
</svg>